<svg class="svg" xmlns="http://www.w3.org/2000/svg" width="100%" height="100%" viewBox="0 0 1233.8330249197704 733">
    <defs>
        <style type="text/css">
            polygon {
                fill: #CCCCCC;
                stroke: white;
                stroke-width: 2;
            }

            .marmara-bolgesi>polygon {
                fill: #efdf48;
            }

            .karadeniz-bolgesi>polygon {
                fill: #8bd346;
            }

            .dogu-anadolu-bolgesi>polygon {
                fill: #f9a52c;
            }

            .ic-anadolu-bolgesi>polygon {
                fill: #d64e12;
            }

            .ege-bolgesi>polygon {
                fill: #16a4d8;
            }

            .akdeniz-bolgesi>polygon {
                fill: #9b5fe0;
            }

            .guneydogu-anadolu-bolgesi>polygon {
                fill: #60dbe8;
            }
        </style>
    </defs>
    <g class="marmara-bolgesi" id="edirne">
        <title>edirne</title>
        <polygon
            points="101.30127018922194,58 144.60254037844388,83 144.60254037844388,133 101.30127018922194,158 58,133 58,83">
        </polygon>
    </g>
    <g class="marmara-bolgesi" id="kirklareli">
        <title>kirklareli</title>
        <polygon
            points="187.9038105676658,58 231.20508075688775,83 231.20508075688775,133 187.9038105676658,158 144.60254037844385,133 144.60254037844385,83">
        </polygon>
    </g>
    <g class="karadeniz-bolgesi" id="zonguldak">
        <title>zonguldak</title>
        <polygon
            points="447.71143170299746,58 491.0127018922194,83 491.0127018922194,133 447.71143170299746,158 404.4101615137755,133 404.4101615137755,83">
        </polygon>
    </g>
    <g class="karadeniz-bolgesi" id="bartin">
        <title>bartin</title>
        <polygon
            points="534.3139720814413,58 577.6152422706632,83 577.6152422706632,133 534.3139720814413,158 491.01270189221935,133 491.01270189221935,83">
        </polygon>
    </g>
    <g class="karadeniz-bolgesi" id="kastamonu">
        <title>kastamonu</title>
        <polygon
            points="620.9165124598852,58 664.2177826491071,83 664.2177826491071,133 620.9165124598852,158 577.6152422706633,133 577.6152422706633,83">
        </polygon>
    </g>
    <g class="karadeniz-bolgesi" id="sinop">
        <title>sinop</title>
        <polygon
            points="707.5190528383291,58 750.820323027551,83 750.820323027551,133 707.5190528383291,158 664.2177826491072,133 664.2177826491072,83">
        </polygon>
    </g>
    <g class="buyuksehir karadeniz-bolgesi" id="samsun">
        <title>samsun</title>
        <polygon
            points="794.121593216773,58 837.4228634059949,83 837.4228634059949,133 794.121593216773,158 750.8203230275511,133 750.8203230275511,83">
        </polygon>
    </g>
    <g class="karadeniz-bolgesi" id="artvin">
        <title>artvin</title>
        <polygon
            points="1140.5317547305485,58 1183.8330249197704,83 1183.8330249197704,133 1140.5317547305485,158 1097.2304845413266,133 1097.2304845413266,83">
        </polygon>
    </g>
    <g class="buyuksehir marmara-bolgesi" id="tekirdag">
        <title>tekirdag</title>
        <polygon
            points="144.60254037844388,133 187.9038105676658,158 187.9038105676658,208 144.60254037844388,233 101.30127018922194,208 101.30127018922194,158">
        </polygon>
    </g>
    <g class="buyuksehir marmara-bolgesi" id="istanbul">
        <title>istanbul</title>
        <polygon
            points="231.20508075688775,133 274.5063509461097,158 274.5063509461097,208 231.20508075688775,233 187.9038105676658,208 187.9038105676658,158">
        </polygon>
    </g>
    <g class="buyuksehir marmara-bolgesi" id="kocaeli">
        <title>kocaeli</title>
        <polygon
            points="317.8076211353316,133 361.10889132455355,158 361.10889132455355,208 317.8076211353316,233 274.50635094610965,208 274.50635094610965,158">
        </polygon>
    </g>
    <g class="buyuksehir marmara-bolgesi" id="sakarya">
        <title>sakarya</title>
        <polygon
            points="404.4101615137755,133 447.71143170299746,158 447.71143170299746,208 404.4101615137755,233 361.10889132455355,208 361.10889132455355,158">
        </polygon>
    </g>
    <g class="karadeniz-bolgesi" id="duzce">
        <title>duzce</title>
        <polygon
            points="491.0127018922194,133 534.3139720814413,158 534.3139720814413,208 491.0127018922194,233 447.71143170299746,208 447.71143170299746,158">
        </polygon>
    </g>
    <g class="karadeniz-bolgesi" id="karabuk">
        <title>karabuk</title>
        <polygon
            points="577.6152422706633,133 620.9165124598852,158 620.9165124598852,208 577.6152422706633,233 534.3139720814414,208 534.3139720814414,158">
        </polygon>
    </g>
    <g class="karadeniz-bolgesi" id="corum">
        <title>corum</title>
        <polygon
            points="664.2177826491072,133 707.5190528383291,158 707.5190528383291,208 664.2177826491072,233 620.9165124598853,208 620.9165124598853,158">
        </polygon>
    </g>
    <g class="karadeniz-bolgesi" id="amasya">
        <title>amasya</title>
        <polygon
            points="750.8203230275511,133 794.121593216773,158 794.121593216773,208 750.8203230275511,233 707.5190528383292,208 707.5190528383292,158">
        </polygon>
    </g>
    <g class="buyuksehir karadeniz-bolgesi" id="ordu">
        <title>ordu</title>
        <polygon
            points="837.422863405995,133 880.7241335952169,158 880.7241335952169,208 837.422863405995,233 794.1215932167731,208 794.1215932167731,158">
        </polygon>
    </g>
    <g class="karadeniz-bolgesi" id="giresun">
        <title>giresun</title>
        <polygon
            points="924.0254037844389,133 967.3266739736608,158 967.3266739736608,208 924.0254037844389,233 880.724133595217,208 880.724133595217,158">
        </polygon>
    </g>
    <g class="buyuksehir karadeniz-bolgesi" id="trabzon">
        <title>trabzon</title>
        <polygon
            points="1010.6279441628828,133 1053.9292143521047,158 1053.9292143521047,208 1010.6279441628828,233 967.326673973661,208 967.326673973661,158">
        </polygon>
    </g>
    <g class="karadeniz-bolgesi" id="rize">
        <title>rize</title>
        <polygon
            points="1097.2304845413266,133 1140.5317547305485,158 1140.5317547305485,208 1097.2304845413266,233 1053.9292143521047,208 1053.9292143521047,158">
        </polygon>
    </g>
    <g class="dogu-anadolu-bolgesi" id="ardahan">
        <title>ardahan</title>
        <polygon
            points="1183.8330249197704,133 1227.1342951089923,158 1227.1342951089923,208 1183.8330249197704,233 1140.5317547305485,208 1140.5317547305485,158">
        </polygon>
    </g>
    <g class="marmara-bolgesi" id="canakkale">
        <title>canakkale</title>
        <polygon
            points="101.30127018922194,208 144.60254037844388,233 144.60254037844388,283 101.30127018922194,308 58,283 58,233">
        </polygon>
    </g>
    <g class="marmara-bolgesi" id="yalova">
        <title>yalova</title>
        <polygon
            points="274.5063509461097,208 317.80762113533166,233 317.80762113533166,283 274.5063509461097,308 231.20508075688775,283 231.20508075688775,233">
        </polygon>
    </g>
    <g class="marmara-bolgesi" id="bilecik">
        <title>bilecik</title>
        <polygon
            points="361.10889132455355,208 404.4101615137755,233 404.4101615137755,283 361.10889132455355,308 317.8076211353316,283 317.8076211353316,233">
        </polygon>
    </g>
    <g class="karadeniz-bolgesi" id="bolu">
        <title>bolu</title>
        <polygon
            points="447.71143170299746,208 491.0127018922194,233 491.0127018922194,283 447.71143170299746,308 404.4101615137755,283 404.4101615137755,233">
        </polygon>
    </g>
    <g class="ic-anadolu-bolgesi" id="cankiri">
        <title>cankiri</title>
        <polygon
            points="534.3139720814413,208 577.6152422706632,233 577.6152422706632,283 534.3139720814413,308 491.01270189221935,283 491.01270189221935,233">
        </polygon>
    </g>
    <g class="ic-anadolu-bolgesi" id="kirsehir">
        <title>kirsehir</title>
        <polygon
            points="620.9165124598852,208 664.2177826491071,233 664.2177826491071,283 620.9165124598852,308 577.6152422706633,283 577.6152422706633,233">
        </polygon>
    </g>
    <g class="ic-anadolu-bolgesi" id="sivas">
        <title>sivas</title>
        <polygon
            points="707.5190528383291,208 750.820323027551,233 750.820323027551,283 707.5190528383291,308 664.2177826491072,283 664.2177826491072,233">
        </polygon>
    </g>
    <g class="karadeniz-bolgesi" id="tokat">
        <title>tokat</title>
        <polygon
            points="794.121593216773,208 837.4228634059949,233 837.4228634059949,283 794.121593216773,308 750.8203230275511,283 750.8203230275511,233">
        </polygon>
    </g>
    <g class="karadeniz-bolgesi" id="gumushane">
        <title>gumushane</title>
        <polygon
            points="880.7241335952169,208 924.0254037844388,233 924.0254037844388,283 880.7241335952169,308 837.422863405995,283 837.422863405995,233">
        </polygon>
    </g>
    <g class="karadeniz-bolgesi" id="bayburt">
        <title>bayburt</title>
        <polygon
            points="967.3266739736608,208 1010.6279441628827,233 1010.6279441628827,283 967.3266739736608,308 924.0254037844389,283 924.0254037844389,233">
        </polygon>
    </g>
    <g class="buyuksehir dogu-anadolu-bolgesi" id="erzurum">
        <title>erzurum</title>
        <polygon
            points="1053.9292143521047,208 1097.2304845413266,233 1097.2304845413266,283 1053.9292143521047,308 1010.6279441628828,283 1010.6279441628828,233">
        </polygon>
    </g>
    <g class="dogu-anadolu-bolgesi" id="kars">
        <title>kars</title>
        <polygon
            points="1140.5317547305485,208 1183.8330249197704,233 1183.8330249197704,283 1140.5317547305485,308 1097.2304845413266,283 1097.2304845413266,233">
        </polygon>
    </g>
    <g class="buyuksehir marmara-bolgesi" id="balikesir">
        <title>balikesir</title>
        <polygon
            points="144.60254037844388,283 187.9038105676658,308 187.9038105676658,358 144.60254037844388,383 101.30127018922194,358 101.30127018922194,308">
        </polygon>
    </g>
    <g class="buyuksehir marmara-bolgesi" id="bursa">
        <title>bursa</title>
        <polygon
            points="231.20508075688775,283 274.5063509461097,308 274.5063509461097,358 231.20508075688775,383 187.9038105676658,358 187.9038105676658,308">
        </polygon>
    </g>
    <g class="ege-bolgesi" id="kutahya">
        <title>kutahya</title>
        <polygon
            points="317.8076211353316,283 361.10889132455355,308 361.10889132455355,358 317.8076211353316,383 274.50635094610965,358 274.50635094610965,308">
        </polygon>
    </g>
    <g class="buyuksehir ic-anadolu-bolgesi" id="eskisehir">
        <title>eskisehir</title>
        <polygon
            points="404.4101615137755,283 447.71143170299746,308 447.71143170299746,358 404.4101615137755,383 361.10889132455355,358 361.10889132455355,308">
        </polygon>
    </g>
    <g class="buyuksehir ic-anadolu-bolgesi" id="ankara">
        <title>ankara</title>
        <polygon
            points="491.0127018922194,283 534.3139720814413,308 534.3139720814413,358 491.0127018922194,383 447.71143170299746,358 447.71143170299746,308">
        </polygon>
    </g>
    <g class="ic-anadolu-bolgesi" id="kirikkale">
        <title>kirikkale</title>
        <polygon
            points="577.6152422706633,283 620.9165124598852,308 620.9165124598852,358 577.6152422706633,383 534.3139720814414,358 534.3139720814414,308">
        </polygon>
    </g>
    <g class="ic-anadolu-bolgesi" id="yozgat">
        <title>yozgat</title>
        <polygon
            points="664.2177826491072,283 707.5190528383291,308 707.5190528383291,358 664.2177826491072,383 620.9165124598853,358 620.9165124598853,308">
        </polygon>
    </g>
    <g class="dogu-anadolu-bolgesi" id="erzincan">
        <title>erzincan</title>
        <polygon
            points="750.8203230275511,283 794.121593216773,308 794.121593216773,358 750.8203230275511,383 707.5190528383292,358 707.5190528383292,308">
        </polygon>
    </g>
    <g class="dogu-anadolu-bolgesi" id="tunceli">
        <title>tunceli</title>
        <polygon
            points="837.422863405995,283 880.7241335952169,308 880.7241335952169,358 837.422863405995,383 794.1215932167731,358 794.1215932167731,308">
        </polygon>
    </g>
    <g class="dogu-anadolu-bolgesi" id="bingol">
        <title>bingol</title>
        <polygon
            points="924.0254037844389,283 967.3266739736608,308 967.3266739736608,358 924.0254037844389,383 880.724133595217,358 880.724133595217,308">
        </polygon>
    </g>
    <g class="dogu-anadolu-bolgesi" id="mus">
        <title>mus</title>
        <polygon
            points="1010.6279441628828,283 1053.9292143521047,308 1053.9292143521047,358 1010.6279441628828,383 967.326673973661,358 967.326673973661,308">
        </polygon>
    </g>
    <g class="dogu-anadolu-bolgesi" id="agri">
        <title>agri</title>
        <polygon
            points="1097.2304845413266,283 1140.5317547305485,308 1140.5317547305485,358 1097.2304845413266,383 1053.9292143521047,358 1053.9292143521047,308">
        </polygon>
    </g>
    <g class="dogu-anadolu-bolgesi" id="igdir">
        <title>igdir</title>
        <polygon
            points="1183.8330249197704,283 1227.1342951089923,308 1227.1342951089923,358 1183.8330249197704,383 1140.5317547305485,358 1140.5317547305485,308">
        </polygon>
    </g>
    <g class="buyuksehir ege-bolgesi" id="izmir">
        <title>izmir</title>
        <polygon
            points="101.30127018922194,358 144.60254037844388,383 144.60254037844388,433 101.30127018922194,458 58,433 58,383">
        </polygon>
    </g>
    <g class="buyuksehir ege-bolgesi" id="manisa">
        <title>manisa</title>
        <polygon
            points="187.9038105676658,358 231.20508075688775,383 231.20508075688775,433 187.9038105676658,458 144.60254037844385,433 144.60254037844385,383">
        </polygon>
    </g>
    <g class="ege-bolgesi" id="usak">
        <title>usak</title>
        <polygon
            points="274.5063509461097,358 317.80762113533166,383 317.80762113533166,433 274.5063509461097,458 231.20508075688775,433 231.20508075688775,383">
        </polygon>
    </g>
    <g class="ege-bolgesi" id="afyonkarahisar">
        <title>afyonkarahisar</title>
        <polygon
            points="361.10889132455355,358 404.4101615137755,383 404.4101615137755,433 361.10889132455355,458 317.8076211353316,433 317.8076211353316,383">
        </polygon>
    </g>
    <g class="buyuksehir ic-anadolu-bolgesi" id="konya">
        <title>konya</title>
        <polygon
            points="447.71143170299746,358 491.0127018922194,383 491.0127018922194,433 447.71143170299746,458 404.4101615137755,433 404.4101615137755,383">
        </polygon>
    </g>
    <g class="ic-anadolu-bolgesi" id="aksaray">
        <title>aksaray</title>
        <polygon
            points="620.9165124598852,358 664.2177826491071,383 664.2177826491071,433 620.9165124598852,458 577.6152422706633,433 577.6152422706633,383">
        </polygon>
    </g>
    <g class="ic-anadolu-bolgesi" id="nevsehir">
        <title>nevsehir</title>
        <polygon
            points="707.5190528383291,358 750.820323027551,383 750.820323027551,433 707.5190528383291,458 664.2177826491072,433 664.2177826491072,383">
        </polygon>
    </g>
    <g class="buyuksehir ic-anadolu-bolgesi" id="kayseri">
        <title>kayseri</title>
        <polygon
            points="794.121593216773,358 837.4228634059949,383 837.4228634059949,433 794.121593216773,458 750.8203230275511,433 750.8203230275511,383">
        </polygon>
    </g>
    <g class="buyuksehir dogu-anadolu-bolgesi" id="malatya">
        <title>malatya</title>
        <polygon
            points="880.7241335952169,358 924.0254037844388,383 924.0254037844388,433 880.7241335952169,458 837.422863405995,433 837.422863405995,383">
        </polygon>
    </g>
    <g class="dogu-anadolu-bolgesi" id="elazig">
        <title>elazig</title>
        <polygon
            points="967.3266739736608,358 1010.6279441628827,383 1010.6279441628827,433 967.3266739736608,458 924.0254037844389,433 924.0254037844389,383">
        </polygon>
    </g>
    <g class="buyuksehir dogu-anadolu-bolgesi" id="van">
        <title>van</title>
        <polygon
            points="1140.5317547305485,358 1183.8330249197704,383 1183.8330249197704,433 1140.5317547305485,458 1097.2304845413266,433 1097.2304845413266,383">
        </polygon>
    </g>
    <g class="buyuksehir ege-bolgesi" id="aydin">
        <title>aydin</title>
        <polygon
            points="144.60254037844388,433 187.9038105676658,458 187.9038105676658,508 144.60254037844388,533 101.30127018922194,508 101.30127018922194,458">
        </polygon>
    </g>
    <g class="buyuksehir ege-bolgesi" id="denizli">
        <title>denizli</title>
        <polygon
            points="231.20508075688775,433 274.5063509461097,458 274.5063509461097,508 231.20508075688775,533 187.9038105676658,508 187.9038105676658,458">
        </polygon>
    </g>
    <g class="akdeniz-bolgesi" id="burdur">
        <title>burdur</title>
        <polygon
            points="317.8076211353316,433 361.10889132455355,458 361.10889132455355,508 317.8076211353316,533 274.50635094610965,508 274.50635094610965,458">
        </polygon>
    </g>
    <g class="akdeniz-bolgesi" id="isparta">
        <title>isparta</title>
        <polygon
            points="404.4101615137755,433 447.71143170299746,458 447.71143170299746,508 404.4101615137755,533 361.10889132455355,508 361.10889132455355,458">
        </polygon>
    </g>
    <g class="ic-anadolu-bolgesi" id="karaman">
        <title>karaman</title>
        <polygon
            points="491.0127018922194,433 534.3139720814413,458 534.3139720814413,508 491.0127018922194,533 447.71143170299746,508 447.71143170299746,458">
        </polygon>
    </g>
    <g class="ic-anadolu-bolgesi" id="nigde">
        <title>nigde</title>
        <polygon
            points="577.6152422706633,433 620.9165124598852,458 620.9165124598852,508 577.6152422706633,533 534.3139720814414,508 534.3139720814414,458">
        </polygon>
    </g>
    <g class="buyuksehir akdeniz-bolgesi" id="kahramanmaras">
        <title>kahramanmaras</title>
        <polygon
            points="664.2177826491072,433 707.5190528383291,458 707.5190528383291,508 664.2177826491072,533 620.9165124598853,508 620.9165124598853,458">
        </polygon>
    </g>
    <g class="guneydogu-anadolu-bolgesi" id="adiyaman">
        <title>adiyaman</title>
        <polygon
            points="750.8203230275511,433 794.121593216773,458 794.121593216773,508 750.8203230275511,533 707.5190528383292,508 707.5190528383292,458">
        </polygon>
    </g>
    <g class="buyuksehir guneydogu-anadolu-bolgesi" id="diyarbakir">
        <title>diyarbakir</title>
        <polygon
            points="837.422863405995,433 880.7241335952169,458 880.7241335952169,508 837.422863405995,533 794.1215932167731,508 794.1215932167731,458">
        </polygon>
    </g>
    <g class="guneydogu-anadolu-bolgesi" id="batman">
        <title>batman</title>
        <polygon
            points="924.0254037844389,433 967.3266739736608,458 967.3266739736608,508 924.0254037844389,533 880.724133595217,508 880.724133595217,458">
        </polygon>
    </g>
    <g class="guneydogu-anadolu-bolgesi" id="siirt">
        <title>siirt</title>
        <polygon
            points="1010.6279441628828,433 1053.9292143521047,458 1053.9292143521047,508 1010.6279441628828,533 967.326673973661,508 967.326673973661,458">
        </polygon>
    </g>
    <g class="dogu-anadolu-bolgesi" id="bitlis">
        <title>bitlis</title>
        <polygon
            points="1097.2304845413266,433 1140.5317547305485,458 1140.5317547305485,508 1097.2304845413266,533 1053.9292143521047,508 1053.9292143521047,458">
        </polygon>
    </g>
    <g class="buyuksehir ege-bolgesi" id="mugla">
        <title>mugla</title>
        <polygon
            points="274.5063509461097,508 317.80762113533166,533 317.80762113533166,583 274.5063509461097,608 231.20508075688775,583 231.20508075688775,533">
        </polygon>
    </g>
    <g class="buyuksehir akdeniz-bolgesi" id="antalya">
        <title>antalya</title>
        <polygon
            points="361.10889132455355,508 404.4101615137755,533 404.4101615137755,583 361.10889132455355,608 317.8076211353316,583 317.8076211353316,533">
        </polygon>
    </g>
    <g class="buyuksehir akdeniz-bolgesi" id="mersin">
        <title>mersin</title>
        <polygon
            points="447.71143170299746,508 491.0127018922194,533 491.0127018922194,583 447.71143170299746,608 404.4101615137755,583 404.4101615137755,533">
        </polygon>
    </g>
    <g class="buyuksehir akdeniz-bolgesi" id="adana">
        <title>adana</title>
        <polygon
            points="534.3139720814413,508 577.6152422706632,533 577.6152422706632,583 534.3139720814413,608 491.01270189221935,583 491.01270189221935,533">
        </polygon>
    </g>
    <g class="akdeniz-bolgesi" id="osmaniye">
        <title>osmaniye</title>
        <polygon
            points="620.9165124598852,508 664.2177826491071,533 664.2177826491071,583 620.9165124598852,608 577.6152422706633,583 577.6152422706633,533">
        </polygon>
    </g>
    <g class="guneydogu-anadolu-bolgesi" id="kilis">
        <title>kilis</title>
        <polygon
            points="707.5190528383291,508 750.820323027551,533 750.820323027551,583 707.5190528383291,608 664.2177826491072,583 664.2177826491072,533">
        </polygon>
    </g>
    <g class="buyuksehir guneydogu-anadolu-bolgesi" id="gaziantep">
        <title>gaziantep</title>
        <polygon
            points="794.121593216773,508 837.4228634059949,533 837.4228634059949,583 794.121593216773,608 750.8203230275511,583 750.8203230275511,533">
        </polygon>
    </g>
    <g class="buyuksehir guneydogu-anadolu-bolgesi" id="sanliurfa">
        <title>sanliurfa</title>
        <polygon
            points="880.7241335952169,508 924.0254037844388,533 924.0254037844388,583 880.7241335952169,608 837.422863405995,583 837.422863405995,533">
        </polygon>
    </g>
    <g class="buyuksehir guneydogu-anadolu-bolgesi" id="mardin">
        <title>mardin</title>
        <polygon
            points="967.3266739736608,508 1010.6279441628827,533 1010.6279441628827,583 967.3266739736608,608 924.0254037844389,583 924.0254037844389,533">
        </polygon>
    </g>
    <g class="guneydogu-anadolu-bolgesi" id="sirnak">
        <title>sirnak</title>
        <polygon
            points="1053.9292143521047,508 1097.2304845413266,533 1097.2304845413266,583 1053.9292143521047,608 1010.6279441628828,583 1010.6279441628828,533">
        </polygon>
    </g>
    <g class="dogu-anadolu-bolgesi" id="hakkari">
        <title>hakkari</title>
        <polygon
            points="1140.5317547305485,508 1183.8330249197704,533 1183.8330249197704,583 1140.5317547305485,608 1097.2304845413266,583 1097.2304845413266,533">
        </polygon>
    </g>
    <g class="buyuksehir akdeniz-bolgesi" id="hatay">
        <title>hatay</title>
        <polygon
            points="664.2177826491072,583 707.5190528383291,608 707.5190528383291,658 664.2177826491072,683 620.9165124598853,658 620.9165124598853,608">
        </polygon>
    </g>
</svg>