<svg class="svg"
    xmlns="http://www.w3.org/2000/svg" width="100%" height="100%" viewBox="0 0 1233.8330249197704 733">
    <defs>
        <style type="text/css">
            polygon {
                fill: #CCCCCC;
                stroke: white;
                stroke-width: 2;
            }
        </style>
    </defs>
    <g id="edirne">
        <polygon points="101.30127018922194,58 144.60254037844388,83 144.60254037844388,133 101.30127018922194,158 58,133 58,83"></polygon>
    </g>
    <g id="kirklareli">
        <polygon points="187.9038105676658,58 231.20508075688775,83 231.20508075688775,133 187.9038105676658,158 144.60254037844385,133 144.60254037844385,83"></polygon>
    </g>
    <g id="zonguldak">
        <polygon points="447.71143170299746,58 491.0127018922194,83 491.0127018922194,133 447.71143170299746,158 404.4101615137755,133 404.4101615137755,83"></polygon>
    </g>
    <g id="bartin">
        <polygon points="534.3139720814413,58 577.6152422706632,83 577.6152422706632,133 534.3139720814413,158 491.01270189221935,133 491.01270189221935,83"></polygon>
    </g>
    <g id="kastamonu">
        <polygon points="620.9165124598852,58 664.2177826491071,83 664.2177826491071,133 620.9165124598852,158 577.6152422706633,133 577.6152422706633,83"></polygon>
    </g>
    <g id="sinop">
        <polygon points="707.5190528383291,58 750.820323027551,83 750.820323027551,133 707.5190528383291,158 664.2177826491072,133 664.2177826491072,83"></polygon>
    </g>
    <g id="samsun">
        <polygon points="794.121593216773,58 837.4228634059949,83 837.4228634059949,133 794.121593216773,158 750.8203230275511,133 750.8203230275511,83"></polygon>
    </g>
    <g id="artvin">
        <polygon points="1140.5317547305485,58 1183.8330249197704,83 1183.8330249197704,133 1140.5317547305485,158 1097.2304845413266,133 1097.2304845413266,83"></polygon>
    </g>
    <g id="tekirdag">
        <polygon points="144.60254037844388,133 187.9038105676658,158 187.9038105676658,208 144.60254037844388,233 101.30127018922194,208 101.30127018922194,158"></polygon>
    </g>
    <g id="istanbul">
        <polygon points="231.20508075688775,133 274.5063509461097,158 274.5063509461097,208 231.20508075688775,233 187.9038105676658,208 187.9038105676658,158"></polygon>
    </g>
    <g id="kocaeli">
        <polygon points="317.8076211353316,133 361.10889132455355,158 361.10889132455355,208 317.8076211353316,233 274.50635094610965,208 274.50635094610965,158"></polygon>
    </g>
    <g id="sakarya">
        <polygon points="404.4101615137755,133 447.71143170299746,158 447.71143170299746,208 404.4101615137755,233 361.10889132455355,208 361.10889132455355,158"></polygon>
    </g>
    <g id="duzce">
        <polygon points="491.0127018922194,133 534.3139720814413,158 534.3139720814413,208 491.0127018922194,233 447.71143170299746,208 447.71143170299746,158"></polygon>
    </g>
    <g id="karabuk">
        <polygon points="577.6152422706633,133 620.9165124598852,158 620.9165124598852,208 577.6152422706633,233 534.3139720814414,208 534.3139720814414,158"></polygon>
    </g>
    <g id="corum">
        <polygon points="664.2177826491072,133 707.5190528383291,158 707.5190528383291,208 664.2177826491072,233 620.9165124598853,208 620.9165124598853,158"></polygon>
    </g>
    <g id="amasya">
        <polygon points="750.8203230275511,133 794.121593216773,158 794.121593216773,208 750.8203230275511,233 707.5190528383292,208 707.5190528383292,158"></polygon>
    </g>
    <g id="ordu">
        <polygon points="837.422863405995,133 880.7241335952169,158 880.7241335952169,208 837.422863405995,233 794.1215932167731,208 794.1215932167731,158"></polygon>
    </g>
    <g id="giresun">
        <polygon points="924.0254037844389,133 967.3266739736608,158 967.3266739736608,208 924.0254037844389,233 880.724133595217,208 880.724133595217,158"></polygon>
    </g>
    <g id="trabzon">
        <polygon points="1010.6279441628828,133 1053.9292143521047,158 1053.9292143521047,208 1010.6279441628828,233 967.326673973661,208 967.326673973661,158"></polygon>
    </g>
    <g id="rize">
        <polygon points="1097.2304845413266,133 1140.5317547305485,158 1140.5317547305485,208 1097.2304845413266,233 1053.9292143521047,208 1053.9292143521047,158"></polygon>
    </g>
    <g id="ardahan">
        <polygon points="1183.8330249197704,133 1227.1342951089923,158 1227.1342951089923,208 1183.8330249197704,233 1140.5317547305485,208 1140.5317547305485,158"></polygon>
    </g>
    <g id="canakkale">
        <polygon points="101.30127018922194,208 144.60254037844388,233 144.60254037844388,283 101.30127018922194,308 58,283 58,233"></polygon>
    </g>
    <g id="yalova">
        <polygon points="274.5063509461097,208 317.80762113533166,233 317.80762113533166,283 274.5063509461097,308 231.20508075688775,283 231.20508075688775,233"></polygon>
    </g>
    <g id="bilecik">
        <polygon points="361.10889132455355,208 404.4101615137755,233 404.4101615137755,283 361.10889132455355,308 317.8076211353316,283 317.8076211353316,233"></polygon>
    </g>
    <g id="bolu">
        <polygon points="447.71143170299746,208 491.0127018922194,233 491.0127018922194,283 447.71143170299746,308 404.4101615137755,283 404.4101615137755,233"></polygon>
    </g>
    <g id="cankiri">
        <polygon points="534.3139720814413,208 577.6152422706632,233 577.6152422706632,283 534.3139720814413,308 491.01270189221935,283 491.01270189221935,233"></polygon>
    </g>
    <g id="kirsehir">
        <polygon points="620.9165124598852,208 664.2177826491071,233 664.2177826491071,283 620.9165124598852,308 577.6152422706633,283 577.6152422706633,233"></polygon>
    </g>
    <g id="sivas">
        <polygon points="707.5190528383291,208 750.820323027551,233 750.820323027551,283 707.5190528383291,308 664.2177826491072,283 664.2177826491072,233"></polygon>
    </g>
    <g id="tokat">
        <polygon points="794.121593216773,208 837.4228634059949,233 837.4228634059949,283 794.121593216773,308 750.8203230275511,283 750.8203230275511,233"></polygon>
    </g>
    <g id="gumushane">
        <polygon points="880.7241335952169,208 924.0254037844388,233 924.0254037844388,283 880.7241335952169,308 837.422863405995,283 837.422863405995,233"></polygon>
    </g>
    <g id="bayburt">
        <polygon points="967.3266739736608,208 1010.6279441628827,233 1010.6279441628827,283 967.3266739736608,308 924.0254037844389,283 924.0254037844389,233"></polygon>
    </g>
    <g id="erzurum">
        <polygon points="1053.9292143521047,208 1097.2304845413266,233 1097.2304845413266,283 1053.9292143521047,308 1010.6279441628828,283 1010.6279441628828,233"></polygon>
    </g>
    <g id="kars">
        <polygon points="1140.5317547305485,208 1183.8330249197704,233 1183.8330249197704,283 1140.5317547305485,308 1097.2304845413266,283 1097.2304845413266,233"></polygon>
    </g>
    <g id="balikesir">
        <polygon points="144.60254037844388,283 187.9038105676658,308 187.9038105676658,358 144.60254037844388,383 101.30127018922194,358 101.30127018922194,308"></polygon>
    </g>
    <g id="bursa">
        <polygon points="231.20508075688775,283 274.5063509461097,308 274.5063509461097,358 231.20508075688775,383 187.9038105676658,358 187.9038105676658,308"></polygon>
    </g>
    <g id="kutahya">
        <polygon points="317.8076211353316,283 361.10889132455355,308 361.10889132455355,358 317.8076211353316,383 274.50635094610965,358 274.50635094610965,308"></polygon>
    </g>
    <g id="eskisehir">
        <polygon points="404.4101615137755,283 447.71143170299746,308 447.71143170299746,358 404.4101615137755,383 361.10889132455355,358 361.10889132455355,308"></polygon>
    </g>
    <g id="ankara">
        <polygon points="491.0127018922194,283 534.3139720814413,308 534.3139720814413,358 491.0127018922194,383 447.71143170299746,358 447.71143170299746,308"></polygon>
    </g>
    <g id="kirikkale">
        <polygon points="577.6152422706633,283 620.9165124598852,308 620.9165124598852,358 577.6152422706633,383 534.3139720814414,358 534.3139720814414,308"></polygon>
    </g>
    <g id="yozgat">
        <polygon points="664.2177826491072,283 707.5190528383291,308 707.5190528383291,358 664.2177826491072,383 620.9165124598853,358 620.9165124598853,308"></polygon>
    </g>
    <g id="erzincan">
        <polygon points="750.8203230275511,283 794.121593216773,308 794.121593216773,358 750.8203230275511,383 707.5190528383292,358 707.5190528383292,308"></polygon>
    </g>
    <g id="tunceli">
        <polygon points="837.422863405995,283 880.7241335952169,308 880.7241335952169,358 837.422863405995,383 794.1215932167731,358 794.1215932167731,308"></polygon>
    </g>
    <g id="bingol">
        <polygon points="924.0254037844389,283 967.3266739736608,308 967.3266739736608,358 924.0254037844389,383 880.724133595217,358 880.724133595217,308"></polygon>
    </g>
    <g id="mus">
        <polygon points="1010.6279441628828,283 1053.9292143521047,308 1053.9292143521047,358 1010.6279441628828,383 967.326673973661,358 967.326673973661,308"></polygon>
    </g>
    <g id="agri">
        <polygon points="1097.2304845413266,283 1140.5317547305485,308 1140.5317547305485,358 1097.2304845413266,383 1053.9292143521047,358 1053.9292143521047,308"></polygon>
    </g>
    <g id="igdir">
        <polygon points="1183.8330249197704,283 1227.1342951089923,308 1227.1342951089923,358 1183.8330249197704,383 1140.5317547305485,358 1140.5317547305485,308"></polygon>
    </g>
    <g id="izmir">
        <polygon points="101.30127018922194,358 144.60254037844388,383 144.60254037844388,433 101.30127018922194,458 58,433 58,383"></polygon>
    </g>
    <g id="manisa">
        <polygon points="187.9038105676658,358 231.20508075688775,383 231.20508075688775,433 187.9038105676658,458 144.60254037844385,433 144.60254037844385,383"></polygon>
    </g>
    <g id="usak">
        <polygon points="274.5063509461097,358 317.80762113533166,383 317.80762113533166,433 274.5063509461097,458 231.20508075688775,433 231.20508075688775,383"></polygon>
    </g>
    <g id="afyonkarahisar">
        <polygon points="361.10889132455355,358 404.4101615137755,383 404.4101615137755,433 361.10889132455355,458 317.8076211353316,433 317.8076211353316,383"></polygon>
    </g>
    <g id="konya">
        <polygon points="447.71143170299746,358 491.0127018922194,383 491.0127018922194,433 447.71143170299746,458 404.4101615137755,433 404.4101615137755,383"></polygon>
    </g>
    <g id="aksaray">
        <polygon points="620.9165124598852,358 664.2177826491071,383 664.2177826491071,433 620.9165124598852,458 577.6152422706633,433 577.6152422706633,383"></polygon>
    </g>
    <g id="nevsehir">
        <polygon points="707.5190528383291,358 750.820323027551,383 750.820323027551,433 707.5190528383291,458 664.2177826491072,433 664.2177826491072,383"></polygon>
    </g>
    <g id="kayseri">
        <polygon points="794.121593216773,358 837.4228634059949,383 837.4228634059949,433 794.121593216773,458 750.8203230275511,433 750.8203230275511,383"></polygon>
    </g>
    <g id="malatya">
        <polygon points="880.7241335952169,358 924.0254037844388,383 924.0254037844388,433 880.7241335952169,458 837.422863405995,433 837.422863405995,383"></polygon>
    </g>
    <g id="bitlis">
        <polygon points="967.3266739736608,358 1010.6279441628827,383 1010.6279441628827,433 967.3266739736608,458 924.0254037844389,433 924.0254037844389,383"></polygon>
    </g>
    <g id="van">
        <polygon points="1140.5317547305485,358 1183.8330249197704,383 1183.8330249197704,433 1140.5317547305485,458 1097.2304845413266,433 1097.2304845413266,383"></polygon>
    </g>
    <g id="aydin">
        <polygon points="144.60254037844388,433 187.9038105676658,458 187.9038105676658,508 144.60254037844388,533 101.30127018922194,508 101.30127018922194,458"></polygon>
    </g>
    <g id="denizli">
        <polygon points="231.20508075688775,433 274.5063509461097,458 274.5063509461097,508 231.20508075688775,533 187.9038105676658,508 187.9038105676658,458"></polygon>
    </g>
    <g id="burdur">
        <polygon points="317.8076211353316,433 361.10889132455355,458 361.10889132455355,508 317.8076211353316,533 274.50635094610965,508 274.50635094610965,458"></polygon>
    </g>
    <g id="isparta">
        <polygon points="404.4101615137755,433 447.71143170299746,458 447.71143170299746,508 404.4101615137755,533 361.10889132455355,508 361.10889132455355,458"></polygon>
    </g>
    <g id="karaman">
        <polygon points="491.0127018922194,433 534.3139720814413,458 534.3139720814413,508 491.0127018922194,533 447.71143170299746,508 447.71143170299746,458"></polygon>
    </g>
    <g id="nigde">
        <polygon points="577.6152422706633,433 620.9165124598852,458 620.9165124598852,508 577.6152422706633,533 534.3139720814414,508 534.3139720814414,458"></polygon>
    </g>
    <g id="kahramanmaras">
        <polygon points="664.2177826491072,433 707.5190528383291,458 707.5190528383291,508 664.2177826491072,533 620.9165124598853,508 620.9165124598853,458"></polygon>
    </g>
    <g id="adiyaman">
        <polygon points="750.8203230275511,433 794.121593216773,458 794.121593216773,508 750.8203230275511,533 707.5190528383292,508 707.5190528383292,458"></polygon>
    </g>
    <g id="elazig">
        <polygon points="837.422863405995,433 880.7241335952169,458 880.7241335952169,508 837.422863405995,533 794.1215932167731,508 794.1215932167731,458"></polygon>
    </g>
    <g id="diyarbakir">
        <polygon points="924.0254037844389,433 967.3266739736608,458 967.3266739736608,508 924.0254037844389,533 880.724133595217,508 880.724133595217,458"></polygon>
    </g>
    <g id="batman">
        <polygon points="1010.6279441628828,433 1053.9292143521047,458 1053.9292143521047,508 1010.6279441628828,533 967.326673973661,508 967.326673973661,458"></polygon>
    </g>
    <g id="siirt">
        <polygon points="1097.2304845413266,433 1140.5317547305485,458 1140.5317547305485,508 1097.2304845413266,533 1053.9292143521047,508 1053.9292143521047,458"></polygon>
    </g>
    <g id="mugla">
        <polygon points="274.5063509461097,508 317.80762113533166,533 317.80762113533166,583 274.5063509461097,608 231.20508075688775,583 231.20508075688775,533"></polygon>
    </g>
    <g id="antalya">
        <polygon points="361.10889132455355,508 404.4101615137755,533 404.4101615137755,583 361.10889132455355,608 317.8076211353316,583 317.8076211353316,533"></polygon>
    </g>
    <g id="mersin">
        <polygon points="447.71143170299746,508 491.0127018922194,533 491.0127018922194,583 447.71143170299746,608 404.4101615137755,583 404.4101615137755,533"></polygon>
    </g>
    <g id="adana">
        <polygon points="534.3139720814413,508 577.6152422706632,533 577.6152422706632,583 534.3139720814413,608 491.01270189221935,583 491.01270189221935,533"></polygon>
    </g>
    <g id="osmaniye">
        <polygon points="620.9165124598852,508 664.2177826491071,533 664.2177826491071,583 620.9165124598852,608 577.6152422706633,583 577.6152422706633,533"></polygon>
    </g>
    <g id="kilis">
        <polygon points="707.5190528383291,508 750.820323027551,533 750.820323027551,583 707.5190528383291,608 664.2177826491072,583 664.2177826491072,533"></polygon>
    </g>
    <g id="gaziantep">
        <polygon points="794.121593216773,508 837.4228634059949,533 837.4228634059949,583 794.121593216773,608 750.8203230275511,583 750.8203230275511,533"></polygon>
    </g>
    <g id="sanliurfa">
        <polygon points="880.7241335952169,508 924.0254037844388,533 924.0254037844388,583 880.7241335952169,608 837.422863405995,583 837.422863405995,533"></polygon>
    </g>
    <g id="mardin">
        <polygon points="967.3266739736608,508 1010.6279441628827,533 1010.6279441628827,583 967.3266739736608,608 924.0254037844389,583 924.0254037844389,533"></polygon>
    </g>
    <g id="sirnak">
        <polygon points="1053.9292143521047,508 1097.2304845413266,533 1097.2304845413266,583 1053.9292143521047,608 1010.6279441628828,583 1010.6279441628828,533"></polygon>
    </g>
    <g id="hakkari">
        <polygon points="1140.5317547305485,508 1183.8330249197704,533 1183.8330249197704,583 1140.5317547305485,608 1097.2304845413266,583 1097.2304845413266,533"></polygon>
    </g>
    <g id="hatay">
        <polygon points="664.2177826491072,583 707.5190528383291,608 707.5190528383291,658 664.2177826491072,683 620.9165124598853,658 620.9165124598853,608"></polygon>
    </g>
</svg>